<?xml version="1.0" encoding="UTF-8"?>
<svg id="Ebene_1" data-name="Ebene 1" xmlns="http://www.w3.org/2000/svg" viewBox="0 0 320 320">
  <defs>
    <style>
      .cls-1 {
        fill: none;
        stroke: #67c1b9;
        stroke-width: 13px;
      }

      .cls-1, .cls-2 {
        stroke-miterlimit: 10;
      }

      .cls-2 {
        fill: #1d1d1b;
        stroke: #1d1d1b;
        stroke-width: 11px;
      }

      .cls-3 {
        fill: #67c1b9;
      }
    </style>
  </defs>
  <rect class="cls-2" x="4.4" y="5.94" width="310.98" height="310.98" rx="50" ry="50"/>
  <g>
    <path class="cls-3" d="M135.55,131.58v139.11c0,3.12,1.88,3.95,4.18,1.84,0,0,153.66-140.84,153.57-140.94-.09-.1-52.67,47.8-157.75,143.69"/>
    <path class="cls-1" d="M135.55,131.58v139.11c0,3.12,1.88,3.95,4.18,1.84,0,0,153.66-140.84,153.57-140.94-.09-.1-52.67,47.8-157.75,143.69"/>
  </g>
  <g>
    <path class="cls-3" d="M187.53,174.29V35.17c0-3.12-1.88-3.95-4.18-1.84,0,0-153.66,140.84-153.57,140.94.09.1,52.67-47.8,157.75-143.69"/>
    <path class="cls-1" d="M187.53,174.29V35.17c0-3.12-1.88-3.95-4.18-1.84,0,0-153.66,140.84-153.57,140.94.09.1,52.67-47.8,157.75-143.69"/>
  </g>
</svg>